<svg id="Layer_1" data-name="Layer 1" xmlns="http://www.w3.org/2000/svg" viewBox="0 0 193.58207 38.20907"><defs><style>.cls-1{fill:#fff;}</style></defs><title>investec-logo-white</title><path class="cls-1" d="M49.70539,28.12227v-.50578H43.20332v.50578c.65591,0,1.32191.27856,1.32191.74065V51.32364c0,.49492-.666.73881-1.32191.73881v.50208h6.50207v-.50208c-.65778,0-1.32086-.26032-1.32086-.73881V28.86292c0-.49305.66308-.74065,1.32086-.74065" transform="translate(-3.13198 -14.35915)"/><path class="cls-1" d="M122.80257,48.07391l.201,3.06965a14.66812,14.66812,0,0,0,5.57153,1.21334c5.43226,0,7.84971-2.50164,7.84971-4.85972,0-5.6134-10.58992-4.327-10.58992-8.51012,0-1.53562,1.735-2.35654,3.5582-2.35654,2.92295,0,4.618.47879,5.17569,2.45107h.58495l-.0519-2.56016a14.78561,14.78561,0,0,0-5.20665-1.03541c-5.01917,0-7.07353,2.575-7.07353,4.5727,0,5.75692,9.953,4.39951,9.953,8.61737,0,1.25361-1.00627,2.53843-3.701,2.53843-3.33,0-5.04113-1.028-5.82365-3.21713l-.44753.07652" transform="translate(-3.13198 -14.35915)"/><path class="cls-1" d="M92.59785,36.05562V36.558c1.03275,0,1.73051.59317,1.32563,1.3844h.00185L88.9496,47.28426l-4.94449-9.45813c-.23117-.74066.43668-1.26815,1.35554-1.26815v-.50236H77.45191V36.558a2.5613,2.5613,0,0,1,2.3944,1.60287l8.01148,14.25088,8.29007-14.54748A2.38578,2.38578,0,0,1,98.28855,36.558v-.50236h-5.6907" transform="translate(-3.13198 -14.35915)"/><path class="cls-1" d="M74.154,51.32364l-.00263-7.52027h.00529V40.41356c0-3.10248-3.3289-4.8473-6.746-4.8473a11.20741,11.20741,0,0,0-6.56512,2.47834V35.70821l-.009.00184v-.00184c0-.30031-.14458-.38212-.28756-.38212-2.13251.77325-3.08131,1.14609-5.20481,1.8759v.39137A1.51091,1.51091,0,0,1,56.941,39.0943V51.32364c0,.54021-.66706.73881-1.323.73881v.50208h6.51957v-.50208c-.65885,0-1.323-.26032-1.323-.73881V39.49627h.031v-.058a7.148,7.148,0,0,1,4.60264-1.81579c4.01209,0,4.83458,2.12855,4.83458,4.04838l-.00716,9.6655c0,.52749-.6689.72609-1.3182.72609v.50208h6.52114v-.50208c-.65779,0-1.32458-.18008-1.32458-.73881" transform="translate(-3.13198 -14.35915)"/><path class="cls-1" d="M108.91106,36.82171c2.50826,0,4.92277,1.29014,4.92277,4.67068H103.44065a5.28348,5.28348,0,0,1,5.47041-4.67068m5.12932,13.372a11.83189,11.83189,0,0,1-3.599.50393,7.29933,7.29933,0,0,1-5.08932-1.905,7.44088,7.44088,0,0,1-2.09251-5.03291V42.7844h14.76937c0-5.16192-4.69532-7.21814-8.56918-7.21814-6.97715,0-10.30947,4.56714-10.37409,8.36819a8.23066,8.23066,0,0,0,1.1625,4.1829,8.57841,8.57841,0,0,0,3.59741,3.28465,11.59051,11.59051,0,0,0,5.24768,1.16253,14.77045,14.77045,0,0,0,4.64792-.65515,12.76819,12.76819,0,0,0,3.99938-2.3054l-.02544-1.288A16.05825,16.05825,0,0,1,114.04038,50.1937Z" transform="translate(-3.13198 -14.35915)"/><path class="cls-1" d="M166.32448,36.82171c2.50668,0,4.92383,1.29014,4.92383,4.67068h-10.395a5.28481,5.28481,0,0,1,5.47117-4.67068m5.12958,13.372a11.819,11.819,0,0,1-3.59819.50393,7.30069,7.30069,0,0,1-5.09119-1.905,7.44088,7.44088,0,0,1-2.09251-5.03291V42.7844h14.772c0-5.16192-4.69717-7.21814-8.571-7.21814-6.9761,0-10.31135,4.56714-10.37331,8.36819a8.21311,8.21311,0,0,0,1.1609,4.1829,8.57853,8.57853,0,0,0,3.59741,3.28465,11.60191,11.60191,0,0,0,5.24849,1.16253,14.79366,14.79366,0,0,0,4.6479-.65515,12.7939,12.7939,0,0,0,3.99859-2.3054l-.02541-1.288A15.95879,15.95879,0,0,1,171.45406,50.1937Z" transform="translate(-3.13198 -14.35915)"/><path class="cls-1" d="M153.856,50.58852l-.07918-.56774a7.40976,7.40976,0,0,1-2.87582.91889c-1.40188.05084-4.1204-.34372-4.1204-3.58445V37.43289H153.122V35.98466h-6.25025V32.77678l-3.95038-.00556.00371,3.22643h-2.552l.02357,1.43524h2.53474v9.83125h-.00265c0,.009.00265.01828.00265.02172v.1038c0,3.308,2.67218,5.0112,6.29581,4.99479a7.12033,7.12033,0,0,0,3.398-.93529,8.26318,8.26318,0,0,0,1.23084-.86064" transform="translate(-3.13198 -14.35915)"/><path class="cls-1" d="M196.714,48.26668a16.459,16.459,0,0,1-2.98225,1.66513,10.6652,10.6652,0,0,1-3.5336.58045c-4.82372,0-7.19084-3.33709-7.19084-6.92365,0-3.1242,1.945-6.77961,6.40463-6.77961a7.46282,7.46282,0,0,1,6.40145,3.37524h.90061V37.10188a16.261,16.261,0,0,0-7.07433-1.64287c-7.69876,0-10.81208,5.11451-10.81208,8.58984a7.78613,7.78613,0,0,0,.31777,2.169h-.022c.06383.193.13558.38212.21476.577a8.181,8.181,0,0,0,1.46756,2.48893,8.42819,8.42819,0,0,0,2.59459,2.06894,10.40341,10.40341,0,0,0,4.08306,1.1355c.48381.04712.98058.08,1.51019.08a10.67435,10.67435,0,0,0,3.90486-.688c.01087-.00528.03072-.009.04715-.0164A12.03352,12.03352,0,0,0,196.714,49.604v-1.3373" transform="translate(-3.13198 -14.35915)"/><path class="cls-1" d="M27.46858,25.84255H30.5508c-1.08359-4.29069-5.00086-7.63495-9.93649-8.44659v1.71226a9.47763,9.47763,0,0,1,6.85427,6.73433M17.70579,37.62964a9.44669,9.44669,0,0,1-8.84587-8.77941h8.84587Zm1.20172-10.002V20.28184h-.009V15.91305h.009v-1.5539H17.70579v2.86416c-5.7217.23833-10.43434,3.84661-11.63882,8.61924H9.14933a9.47471,9.47471,0,0,1,8.55646-6.99994v8.785H3.132v1.22262H5.77674c.3485,5.63536,5.50694,10.14952,11.92905,10.41512v2.853h1.20172V40.71756h-.009v-4.3709h.009V28.85023h8.85224a9.44619,9.44619,0,0,1-7.14544,8.51752v1.71012c5.60334-.91886,9.891-5.10388,10.21509-10.22764h2.65468V27.62761Z" transform="translate(-3.13198 -14.35915)"/></svg>